<svg xmlns="http://www.w3.org/2000/svg" viewBox="1.000 -4.000 68.000 67.801">
<title>Source Verifier</title>
<path d="M 38.000,47.000 L 38.000,32.000 L 24.000,3.000 L 13.000,3.000 Z" fill="#3878dc"/>
<path d="M 63.000,3.000 L 52.000,3.000 L 38.000,32.000 L 38.000,47.000 Z" fill="#3878dc"/>
<path d="M 25.456,6.351 A 13.000,13.000 0 1 0 25.456,27.649 L 21.728,22.324 A 6.500,6.500 0 1 1 21.728,11.676 Z" fill="#1abea0"/>
<path d="M 17.544,43.649 A 13.000,13.000 0 1 0 17.544,22.351 L 21.272,27.676 A 6.500,6.500 0 1 1 21.272,38.324 Z" fill="#1abea0"/>
<path d="M 63.479,10.678 A 6.500,6.500 0 1 0 53.176,10.228 L 56.862,7.647 A 2.000,2.000 0 1 1 60.032,7.786 Z" fill="#e6a23c"/>
<path d="M 53.500,17.000 L 58.000,17.000 L 63.500,9.500 L 59.000,9.500 Z" fill="#e6a23c"/>
<path d="M 52.000,20.000 L 65.000,20.000 L 65.000,15.500 L 52.000,15.500 Z" fill="#e6a23c"/>
<g transform="translate(6.200,57.761) scale(0.00332,-0.00332)"><path d="M1227 1446V1130Q1104 1185 987.0 1213.0Q870 1241 766 1241Q628 1241 562.0 1203.0Q496 1165 496 1085Q496 1025 540.5 991.5Q585 958 702 934L866 901Q1115 851 1220.0 749.0Q1325 647 1325 459Q1325 212 1178.5 91.5Q1032 -29 731 -29Q589 -29 446.0 -2.0Q303 25 160 78V403Q303 327 436.5 288.5Q570 250 694 250Q820 250 887.0 292.0Q954 334 954 412Q954 482 908.5 520.0Q863 558 727 588L578 621Q354 669 250.5 774.0Q147 879 147 1057Q147 1280 291.0 1400.0Q435 1520 705 1520Q828 1520 958.0 1501.5Q1088 1483 1227 1446Z" fill="#22303f"/></g>
<g transform="translate(11.099,57.761) scale(0.00332,-0.00332)"><path d="M705 891Q586 891 523.5 805.5Q461 720 461 559Q461 398 523.5 312.5Q586 227 705 227Q822 227 884.0 312.5Q946 398 946 559Q946 720 884.0 805.5Q822 891 705 891ZM705 1147Q994 1147 1156.5 991.0Q1319 835 1319 559Q1319 283 1156.5 127.0Q994 -29 705 -29Q415 -29 251.5 127.0Q88 283 88 559Q88 835 251.5 991.0Q415 1147 705 1147Z" fill="#22303f"/></g>
<g transform="translate(15.771,57.761) scale(0.00332,-0.00332)"><path d="M160 436V1120H520V1008Q520 917 519.0 779.5Q518 642 518 596Q518 461 525.0 401.5Q532 342 549 315Q571 280 606.5 261.0Q642 242 688 242Q800 242 864.0 328.0Q928 414 928 567V1120H1286V0H928V162Q847 64 756.5 17.5Q666 -29 557 -29Q363 -29 261.5 90.0Q160 209 160 436Z" fill="#22303f"/></g>
<g transform="translate(20.613,57.761) scale(0.00332,-0.00332)"><path d="M1004 815Q957 837 910.5 847.5Q864 858 817 858Q679 858 604.5 769.5Q530 681 530 516V0H172V1120H530V936Q599 1046 688.5 1096.5Q778 1147 903 1147Q921 1147 942.0 1145.5Q963 1144 1003 1139Z" fill="#22303f"/></g>
<g transform="translate(23.968,57.761) scale(0.00332,-0.00332)"><path d="M1077 1085V793Q1004 843 930.5 867.0Q857 891 778 891Q628 891 544.5 803.5Q461 716 461 559Q461 402 544.5 314.5Q628 227 778 227Q862 227 937.5 252.0Q1013 277 1077 326V33Q993 2 906.5 -13.5Q820 -29 733 -29Q430 -29 259.0 126.5Q88 282 88 559Q88 836 259.0 991.5Q430 1147 733 1147Q821 1147 906.5 1131.5Q992 1116 1077 1085Z" fill="#22303f"/></g>
<g transform="translate(27.999,57.761) scale(0.00332,-0.00332)"><path d="M1290 563V461H453Q466 335 544.0 272.0Q622 209 762 209Q875 209 993.5 242.5Q1112 276 1237 344V68Q1110 20 983.0 -4.5Q856 -29 729 -29Q425 -29 256.5 125.5Q88 280 88 559Q88 833 253.5 990.0Q419 1147 709 1147Q973 1147 1131.5 988.0Q1290 829 1290 563ZM922 682Q922 784 862.5 846.5Q803 909 707 909Q603 909 538.0 850.5Q473 792 457 682Z" fill="#22303f"/></g>
<g transform="translate(34.980,57.761) scale(0.00332,-0.00332)"><path d="M10 1493H397L793 391L1188 1493H1575L1022 0H563Z" fill="#22303f"/></g>
<g transform="translate(40.244,57.761) scale(0.00332,-0.00332)"><path d="M1290 563V461H453Q466 335 544.0 272.0Q622 209 762 209Q875 209 993.5 242.5Q1112 276 1237 344V68Q1110 20 983.0 -4.5Q856 -29 729 -29Q425 -29 256.5 125.5Q88 280 88 559Q88 833 253.5 990.0Q419 1147 709 1147Q973 1147 1131.5 988.0Q1290 829 1290 563ZM922 682Q922 784 862.5 846.5Q803 909 707 909Q603 909 538.0 850.5Q473 792 457 682Z" fill="#22303f"/></g>
<g transform="translate(44.857,57.761) scale(0.00332,-0.00332)"><path d="M1004 815Q957 837 910.5 847.5Q864 858 817 858Q679 858 604.5 769.5Q530 681 530 516V0H172V1120H530V936Q599 1046 688.5 1096.5Q778 1147 903 1147Q921 1147 942.0 1145.5Q963 1144 1003 1139Z" fill="#22303f"/></g>
<g transform="translate(48.211,57.761) scale(0.00332,-0.00332)"><path d="M172 1120H530V0H172ZM172 1556H530V1264H172Z" fill="#22303f"/></g>
<g transform="translate(50.542,57.761) scale(0.00332,-0.00332)"><path d="M909 1556V1321H711Q635 1321 605.0 1293.5Q575 1266 575 1198V1120H881V864H575V0H217V864H39V1120H217V1198Q217 1381 319.0 1468.5Q421 1556 635 1556Z" fill="#22303f"/></g>
<g transform="translate(53.501,57.761) scale(0.00332,-0.00332)"><path d="M172 1120H530V0H172ZM172 1556H530V1264H172Z" fill="#22303f"/></g>
<g transform="translate(55.833,57.761) scale(0.00332,-0.00332)"><path d="M1290 563V461H453Q466 335 544.0 272.0Q622 209 762 209Q875 209 993.5 242.5Q1112 276 1237 344V68Q1110 20 983.0 -4.5Q856 -29 729 -29Q425 -29 256.5 125.5Q88 280 88 559Q88 833 253.5 990.0Q419 1147 709 1147Q973 1147 1131.5 988.0Q1290 829 1290 563ZM922 682Q922 784 862.5 846.5Q803 909 707 909Q603 909 538.0 850.5Q473 792 457 682Z" fill="#22303f"/></g>
<g transform="translate(60.446,57.761) scale(0.00332,-0.00332)"><path d="M1004 815Q957 837 910.5 847.5Q864 858 817 858Q679 858 604.5 769.5Q530 681 530 516V0H172V1120H530V936Q599 1046 688.5 1096.5Q778 1147 903 1147Q921 1147 942.0 1145.5Q963 1144 1003 1139Z" fill="#22303f"/></g>
</svg>